<?xml version="1.0" encoding="utf-8"?>
<!-- Generator: Adobe Illustrator 24.3.0, SVG Export Plug-In . SVG Version: 6.00 Build 0)  -->
<svg version="1.1" id="Layer_1" xmlns="http://www.w3.org/2000/svg" xmlns:xlink="http://www.w3.org/1999/xlink" x="0px" y="0px"
	 viewBox="0 0 100 100" style="enable-background:new 0 0 100 100;" xml:space="preserve">
<style type="text/css">
	.st0{fill:#DFCF21;stroke:#9B9A9A;stroke-width:0.25;stroke-miterlimit:10;}
	.st1{fill:#605422;stroke:#9B9A9A;stroke-width:0.25;stroke-miterlimit:10;}
	.st2{fill:#19170C;}
</style>
<g id="O4nS3u_1_">
	<path class="st0" d="M36.62,32.01c-1.04-1.33-3.31-4.61-3.7-9.39c-0.14-1.7-0.58-7.14,2.19-9.01c2.83-1.91,6.93,1.32,7.48,1.76
		c4.94,4.01,4.97,11.63,4.96,12.81"/>
	<path class="st0" d="M46.17,27.65c-0.18-1.68-0.39-5.66,1.8-9.93c0.78-1.52,3.26-6.37,6.6-6.5c3.42-0.13,5.2,4.77,5.43,5.44
		c2.09,6.01-1.89,12.5-2.52,13.5"/>
	<path class="st0" d="M56.24,27.37c0.56-1.6,2.09-5.28,5.9-8.18c1.36-1.03,5.69-4.34,8.76-3.02c3.14,1.35,2.63,6.55,2.55,7.25
		c-0.71,6.32-7.1,10.47-8.1,11.1"/>
	<path class="st0" d="M65.12,32.47c1.14-1.25,3.98-4.05,8.61-5.25c1.65-0.43,6.93-1.79,9.25,0.62c2.37,2.46-0.11,7.05-0.46,7.67
		c-3.1,5.55-10.6,6.89-11.77,7.08"/>
	<path class="st0" d="M70.65,40.89c1.51-0.77,5.15-2.38,9.91-1.87c1.7,0.18,7.12,0.77,8.43,3.85c1.34,3.14-2.6,6.56-3.14,7.01
		c-4.87,4.1-12.35,2.7-13.51,2.47"/>
	<path class="st0" d="M72.62,51.51c1.69,0.07,5.66,0.45,9.55,3.24c1.39,0.99,5.82,4.17,5.46,7.49c-0.37,3.4-5.49,4.44-6.18,4.57
		C75.19,68,69.36,63.1,68.46,62.33"/>
	<path class="st0" d="M69.48,61.35c1.45,0.88,4.73,3.14,6.78,7.47c0.73,1.54,3.07,6.47,1.13,9.2c-1.97,2.79-6.95,1.22-7.62,0.99
		c-6.04-2-8.76-9.12-9.17-10.23"/>
	<path class="st0" d="M62.78,69.01c0.79,1.49,2.46,5.12,2.01,9.88c-0.16,1.7-0.67,7.13-3.72,8.49c-3.12,1.39-6.6-2.5-7.06-3.03
		c-4.17-4.81-2.88-12.31-2.67-13.48"/>
	<path class="st0" d="M52.5,72.82c0.21,1.68,0.48,5.66-1.62,9.96c-0.75,1.53-3.15,6.43-6.49,6.62c-3.41,0.19-5.28-4.68-5.52-5.34
		c-2.19-5.97,1.67-12.53,2.29-13.55"/>
	<path class="st0" d="M41.38,71.38c-0.51,1.61-1.94,5.33-5.66,8.35c-1.33,1.07-5.56,4.51-8.67,3.27c-3.18-1.26-2.82-6.47-2.76-7.17
		c0.52-6.34,6.79-10.67,7.77-11.33"/>
	<path class="st0" d="M32.39,65.12c-1.12,1.26-3.94,4.08-8.57,5.32c-1.65,0.44-6.92,1.85-9.25-0.54c-2.39-2.44,0.05-7.05,0.39-7.67
		c3.06-5.58,10.54-6.98,11.71-7.18"/>
	<path class="st0" d="M27.77,58.3c-1.66,0.31-5.62,0.81-10.03-1.04c-1.57-0.66-6.6-2.77-6.99-6.09c-0.39-3.4,4.36-5.54,5.01-5.83
		c5.83-2.54,12.61,0.94,13.66,1.49"/>
	<path class="st0" d="M28.15,47.03c-1.67-0.25-5.57-1.08-9.13-4.28c-1.27-1.14-5.32-4.79-4.6-8.05c0.75-3.34,5.94-3.8,6.65-3.86
		c6.35-0.48,11.6,5.03,12.41,5.9"/>
	<path class="st0" d="M30.84,38.52c-1.46-0.85-4.78-3.06-6.9-7.36c-0.76-1.53-3.17-6.42-1.29-9.18c1.93-2.82,6.93-1.33,7.6-1.12
		c6.07,1.9,8.91,8.97,9.34,10.07"/>
	<path class="st1" d="M72.4,49.59c0,8.59-5.16,14.63-6.11,15.67c-0.72,0.78-7.28,7.69-17.03,7.47
		c-10.93-0.25-23.14-9.42-23.14-23.14c0-12.78,10.36-23.14,23.14-23.14S72.4,36.81,72.4,49.59z"/>
	
		<rect x="48.98" y="26.5" transform="matrix(0.8147 -0.5799 0.5799 0.8147 -19.5888 37.665)" class="st2" width="0.32" height="45.97"/>
	
		<rect x="52.27" y="24.65" transform="matrix(0.8147 -0.5799 0.5799 0.8147 -17.7026 39.1656)" class="st2" width="0.32" height="45.26"/>
	
		<rect x="55.1" y="23.54" transform="matrix(0.8147 -0.5799 0.5799 0.8147 -15.9863 40.4218)" class="st2" width="0.32" height="43.37"/>
	
		<rect x="58.23" y="23.45" transform="matrix(0.8147 -0.5799 0.5799 0.8147 -14.2629 41.8728)" class="st2" width="0.32" height="39.61"/>
	
		<rect x="60.71" y="23.2" transform="matrix(0.8147 -0.5799 0.5799 0.8147 -12.6336 42.935)" class="st2" width="0.32" height="36.07"/>
	
		<rect x="64.09" y="25.04" transform="matrix(0.8147 -0.5799 0.5799 0.8147 -10.5063 44.4181)" class="st2" width="0.32" height="27.22"/>
	
		<rect x="46.42" y="29.44" transform="matrix(0.8147 -0.5799 0.5799 0.8147 -21.4183 36.6135)" class="st2" width="0.32" height="44.77"/>
	
		<rect x="43.49" y="32.35" transform="matrix(0.8147 -0.5799 0.5799 0.8147 -23.1732 35.2985)" class="st2" width="0.32" height="43.13"/>
	
		<rect x="41.03" y="34.79" transform="matrix(0.8147 -0.5799 0.5799 0.8147 -24.5057 34.1526)" class="st2" width="0.32" height="41.27"/>
	
		<rect x="38.29" y="38.61" transform="matrix(0.8147 -0.5799 0.5799 0.8147 -26.0845 32.9047)" class="st2" width="0.32" height="37.31"/>
	
		<rect x="35.49" y="44.31" transform="matrix(0.8147 -0.5799 0.5799 0.8147 -27.8901 31.6961)" class="st2" width="0.32" height="30.36"/>
	
		<rect x="32.01" y="51.53" transform="matrix(0.8147 -0.5799 0.5799 0.8147 -29.5049 29.9895)" class="st2" width="0.32" height="19.27"/>
	
		<rect x="66.73" y="29.46" transform="matrix(0.8147 -0.5799 0.5799 0.8147 -8.7608 45.5473)" class="st2" width="0.32" height="14.05"/>
	
		<rect x="48.51" y="25.83" transform="matrix(-0.5799 -0.8147 0.8147 -0.5799 37.1165 116.7725)" class="st2" width="0.32" height="45.97"/>
	
		<rect x="51.11" y="29.24" transform="matrix(-0.5799 -0.8147 0.8147 -0.5799 38.7302 123.7469)" class="st2" width="0.32" height="45.29"/>
	
		<rect x="45.95" y="23.17" transform="matrix(-0.5799 -0.8147 0.8147 -0.5799 35.9505 109.1369)" class="st2" width="0.32" height="44.25"/>
	
		<rect x="43.08" y="20.66" transform="matrix(-0.5799 -0.8147 0.8147 -0.5799 34.8012 100.2103)" class="st2" width="0.32" height="40.94"/>
	
		<rect x="53.52" y="33.5" transform="matrix(-0.5799 -0.8147 0.8147 -0.5799 39.8242 130.953)" class="st2" width="0.32" height="43.42"/>
	
		<rect x="55.78" y="38.24" transform="matrix(-0.5799 -0.8147 0.8147 -0.5799 40.8539 137.7317)" class="st2" width="0.32" height="40.19"/>
	
		<rect x="57.9" y="43.83" transform="matrix(-0.5799 -0.8147 0.8147 -0.5799 41.7597 144.1871)" class="st2" width="0.32" height="34.99"/>
	
		<rect x="59.76" y="50.17" transform="matrix(-0.5799 -0.8147 0.8147 -0.5799 42.3397 150.2845)" class="st2" width="0.32" height="28.1"/>
	
		<rect x="61.6" y="58.56" transform="matrix(-0.5799 -0.8147 0.8147 -0.5799 42.9888 156.1686)" class="st2" width="0.32" height="16.88"/>
	
		<rect x="40.9" y="20.15" transform="matrix(-0.5799 -0.8147 0.8147 -0.5799 33.9896 93.3545)" class="st2" width="0.32" height="35.53"/>
	
		<rect x="38.68" y="20.62" transform="matrix(-0.5799 -0.8147 0.8147 -0.5799 33.0511 86.5584)" class="st2" width="0.32" height="28.27"/>
	
		<rect x="36.58" y="24.92" transform="matrix(-0.5799 -0.8147 0.8147 -0.5799 32.5119 79.4343)" class="st2" width="0.32" height="12.83"/>
</g>
</svg>
